Coordinates
version=1
nRows=9
nColumns=24
inDegrees=yes

Units are S.I. units (second, meters, Newtons, ...)
Angles are in degrees.

endheader
time	pelvis_tilt	pelvis_list	pelvis_rotation	pelvis_tx	pelvis_ty	pelvis_tz	hip_flexion_r	hip_adduction_r	hip_rotation_r	knee_angle_r	ankle_angle_r	subtalar_angle_r	mtp_angle_r	hip_flexion_l	hip_adduction_l	hip_rotation_l	knee_angle_l	ankle_angle_l	subtalar_angle_l	mtp_angle_l	lumbar_extension	lumbar_bending	lumbar_rotation
      4.03500000	     -2.13482309	     -5.93964854	     -3.13474441	     -1.46776492	     -0.01911912	      0.45125628	     -3.57184526	     12.56593559	     17.26367149	    -13.06468708	      7.40745537	     -1.16876433	     -2.73270596	     29.94448617	     -6.66498122	      0.69477004	    -53.03720428	    -10.51232009	     10.13106923	     25.67843336	     -1.21359441	      7.15427762	      9.62327184
      4.04000000	     -2.12051911	     -5.77737545	     -3.65277478	     -1.46085994	     -0.01930638	      0.45149783	     -4.24188671	     12.27303564	     17.69292567	    -12.80002572	      7.49736285	     -1.04921550	     -2.62312231	     30.19113644	     -6.69682036	      0.28615323	    -51.56192968	    -10.00156133	     10.53207089	     25.36732856	     -1.32787482	      7.04206323	     10.19555182
      4.04500000	     -2.07809955	     -5.61950319	     -4.14211804	     -1.45395394	     -0.01953865	      0.45167854	     -4.92495459	     11.97626520	     18.11292913	    -12.55679737	      7.57550409	     -0.95918177	     -2.49824453	     30.37921309	     -6.71733775	     -0.08065786	    -50.03569511	     -9.43628230	     11.01153377	     24.98837616	     -1.47563268	      6.92941769	     10.78559166
      4.05000000	     -2.09757197	     -5.45306129	     -4.61614216	     -1.44701217	     -0.01989565	      0.45186092	     -5.52081266	     11.67075896	     18.48805242	    -12.34103759	      7.69486931	     -0.82379770	     -2.36824458	     30.61704948	     -6.75609517	     -0.48918159	    -48.45191098	     -8.94109554	     11.56032966	     24.76204973	     -1.54327004	      6.81068161	     11.28638086
      4.05500000	     -2.07309231	     -5.29236243	     -5.08278690	     -1.44010271	     -0.02029437	      0.45199032	     -6.13620543	     11.36437832	     18.84631049	    -12.16900987	      7.81666802	     -0.71131092	     -2.22125969	     30.76684138	     -6.78163778	     -0.84873583	    -46.81140750	     -8.34211818	     12.16450184	     24.47734758	     -1.67314740	      6.69532614	     11.84016179
      4.06000000	     -2.07263710	     -5.12216149	     -5.52292626	     -1.43316218	     -0.02076447	      0.45208740	     -6.71011431	     11.04595924	     19.16837772	    -12.01317504	      7.93975465	     -0.59094966	     -2.06778930	     30.91977089	     -6.79586079	     -1.19860047	    -45.12278775	     -7.76197634	     12.84389644	     24.18987309	     -1.76950165	      6.56928794	     12.33886946
      4.06500000	     -2.10726069	     -4.94164986	     -5.93832051	     -1.42618925	     -0.02131366	      0.45217791	     -7.22916247	     10.71942808	     19.45024537	    -11.87848750	      8.07500220	     -0.44684004	     -1.91759045	     31.08721446	     -6.80290286	     -1.54473770	    -43.38156307	     -7.23300794	     13.58023010	     23.95994988	     -1.81674517	      6.42633033	     12.75561364
      4.07000000	     -2.08690561	     -4.76851312	     -6.34558487	     -1.41925372	     -0.02187452	      0.45219819	     -7.78171081	     10.38972462	     19.70066775	    -11.78030242	      8.20403100	     -0.29756123	     -1.72843253	     31.16040351	     -6.78974132	     -1.82422446	    -41.60874064	     -6.60165331	     14.37453295	     23.55575243	     -1.94343837	      6.29719748	     13.26814223
      4.07500000	     -2.13314123	     -4.58677868	     -6.73210601	     -1.41224349	     -0.02257327	      0.45222762	     -8.24401860	     10.06304356	     19.90155722	    -11.71670789	      8.37430851	     -0.13448046	     -1.54772039	     31.28039777	     -6.77923367	     -2.12202625	    -39.78542862	     -6.01372734	     15.16605580	     23.30261143	     -1.97825579	      6.15764685	     13.66625604
